<?xml version="1.0" encoding="iso-8859-1"?>
<!-- Uploaded to: SVG Repo, www.svgrepo.com, Generator: SVG Repo Mixer Tools -->
<svg fill="#000000" height="800px" width="800px" version="1.1" id="Layer_1" xmlns="http://www.w3.org/2000/svg" xmlns:xlink="http://www.w3.org/1999/xlink" 
	 viewBox="0 0 512 512" xml:space="preserve">
<g>
	<g>
		<path d="M443.733,383.832h-25.348V256.168c0-79.99-65.327-145.402-145.317-145.402h-34.137
			c-79.99,0-144.813,65.412-144.813,145.402v127.665H68.267c-4.712,0-8.281,4.156-8.281,8.869v110.933
			c0,4.713,3.569,8.198,8.281,8.198h375.467c4.713,0,8.786-3.485,8.786-8.198V392.701
			C452.519,387.988,448.446,383.832,443.733,383.832z M238.931,127.832h34.137c70.579,0,128.25,57.756,128.25,128.335v127.665
			H111.186V256.168h0C111.185,185.589,168.352,127.832,238.931,127.832z M435.452,494.766h-358.4v-93.867H102.4h307.2h25.852
			V494.766z"/>
	</g>
</g>
<g>
	<g>
		<path d="M256.252,0.168c-4.713,0-8.533,3.821-8.533,8.533v76.8c0,4.713,3.821,8.533,8.533,8.533s8.533-3.821,8.533-8.533v-76.8
			C264.786,3.988,260.965,0.168,256.252,0.168z"/>
	</g>
</g>
<g>
	<g>
		<path d="M104.402,126.637L65.767,88.001c-3.329-3.333-8.737-3.333-12.067,0c-3.333,3.331-3.333,8.735,0,12.067l38.635,38.635
			c1.664,1.667,3.85,2.5,6.033,2.5c2.183,0,4.369-0.833,6.033-2.5C107.735,135.372,107.735,129.968,104.402,126.637z"/>
	</g>
</g>
<g>
	<g>
		<path d="M454.271,88.001c-3.329-3.333-8.737-3.333-12.067,0l-38.637,38.636c-3.333,3.331-3.333,8.735,0,12.067
			c1.665,1.667,3.85,2.5,6.033,2.5c2.183,0,4.369-0.833,6.034-2.5l38.637-38.635C457.604,96.736,457.604,91.332,454.271,88.001z"/>
	</g>
</g>
<g>
	<g>
		<path d="M68.267,298.499H8.533c-4.712,0-8.533,3.821-8.533,8.533s3.821,8.533,8.533,8.533h59.733c4.713,0,8.533-3.821,8.533-8.533
			S72.979,298.499,68.267,298.499z"/>
	</g>
</g>
<g>
	<g>
		<path d="M503.467,298.499h-59.733c-4.712,0-8.533,3.821-8.533,8.533s3.821,8.533,8.533,8.533h59.733
			c4.713,0,8.533-3.821,8.533-8.533S508.179,298.499,503.467,298.499z"/>
	</g>
</g>
</svg>